<svg width="23" height="21" viewBox="0 0 23 21" fill="none" xmlns="http://www.w3.org/2000/svg">
<g id="Group">
<path id="Vector" fill-rule="evenodd" clip-rule="evenodd" d="M0.437988 10.8591C0.437988 5.38426 5.38803 0.946289 11.4946 0.946289C17.6011 0.946289 22.5512 5.38426 22.5512 10.8591C22.5512 16.3339 17.6011 20.7719 11.4946 20.7719C5.38803 20.7719 0.437988 16.3339 0.437988 10.8591ZM11.4946 2.92885C9.14867 2.92885 6.89884 3.76436 5.24003 5.25157C3.58122 6.73878 2.64931 8.75587 2.64931 10.8591C2.64931 12.9623 3.58122 14.9794 5.24003 16.4666C6.89884 17.9538 9.14867 18.7894 11.4946 18.7894C13.8405 18.7894 16.0903 17.9538 17.7491 16.4666C19.408 14.9794 20.3399 12.9623 20.3399 10.8591C20.3399 8.75587 19.408 6.73878 17.7491 5.25157C16.0903 3.76436 13.8405 2.92885 11.4946 2.92885Z" fill="white"/>
<path id="Vector_2" fill-rule="evenodd" clip-rule="evenodd" d="M12.6005 5.90241C12.6005 5.63951 12.484 5.38737 12.2766 5.20147C12.0693 5.01557 11.788 4.91113 11.4948 4.91113C11.2016 4.91113 10.9203 5.01557 10.713 5.20147C10.5056 5.38737 10.3891 5.63951 10.3891 5.90241V9.86754H5.9665C5.67326 9.86754 5.39203 9.97198 5.18468 10.1579C4.97733 10.3438 4.86084 10.5959 4.86084 10.8588C4.86084 11.1217 4.97733 11.3739 5.18468 11.5598C5.39203 11.7457 5.67326 11.8501 5.9665 11.8501H10.3891V15.8152C10.3891 16.0781 10.5056 16.3303 10.713 16.5162C10.9203 16.7021 11.2016 16.8065 11.4948 16.8065C11.788 16.8065 12.0693 16.7021 12.2766 16.5162C12.484 16.3303 12.6005 16.0781 12.6005 15.8152V11.8501H17.0231C17.3163 11.8501 17.5976 11.7457 17.8049 11.5598C18.0123 11.3739 18.1288 11.1217 18.1288 10.8588C18.1288 10.5959 18.0123 10.3438 17.8049 10.1579C17.5976 9.97198 17.3163 9.86754 17.0231 9.86754H12.6005V5.90241Z" fill="white"/>
</g>
</svg>
