<svg width="11" height="9" viewBox="0 0 11 9" fill="none" xmlns="http://www.w3.org/2000/svg">
<path id="Vector" fill-rule="evenodd" clip-rule="evenodd" d="M1.96525 0.184092C1.82361 0.0648603 1.63626 -5.05447e-05 1.44269 0.00303485C1.24911 0.00612024 1.06442 0.076961 0.927515 0.200633C0.790614 0.324304 0.712196 0.491151 0.70878 0.666022C0.705365 0.840893 0.777219 1.01013 0.909205 1.13809L4.61534 4.48609L0.909205 7.83409C0.835793 7.89589 0.776911 7.97041 0.736072 8.05321C0.695233 8.13601 0.673273 8.22539 0.671503 8.31602C0.669733 8.40665 0.688188 8.49668 0.725769 8.58073C0.763349 8.66478 0.819285 8.74113 0.890238 8.80523C0.961191 8.86932 1.04571 8.91985 1.13875 8.9538C1.23179 8.98775 1.33145 9.00442 1.43177 9.00282C1.5321 9.00123 1.63104 8.98139 1.7227 8.9445C1.81436 8.9076 1.89685 8.85441 1.96525 8.78809L5.67139 5.44009L9.37752 8.78809C9.44592 8.85441 9.52842 8.9076 9.62007 8.9445C9.71173 8.98139 9.81067 9.00123 9.911 9.00282C10.0113 9.00442 10.111 8.98775 10.204 8.9538C10.2971 8.91985 10.3816 8.86932 10.4525 8.80523C10.5235 8.74113 10.5794 8.66478 10.617 8.58073C10.6546 8.49668 10.673 8.40665 10.6713 8.31602C10.6695 8.22539 10.6475 8.13601 10.6067 8.05321C10.5659 7.97041 10.507 7.89589 10.4336 7.83409L6.72744 4.48609L10.4336 1.13809C10.5656 1.01013 10.6374 0.840893 10.634 0.666022C10.6306 0.491151 10.5522 0.324304 10.4153 0.200633C10.2784 0.076961 10.0937 0.00612024 9.90009 0.00303485C9.70651 -5.05447e-05 9.51916 0.0648603 9.37752 0.184092L5.67139 3.53209L1.96525 0.184092Z" fill="#2930D4"/>
</svg>
