<svg width="17" height="17" viewBox="0 0 17 17" fill="none" xmlns="http://www.w3.org/2000/svg">
<g id="Icon / Field / Calendar" clip-path="url(#clip0_600_281)">
<path id="Vector" d="M8.86797 9.78066C8.6413 9.78066 8.45144 9.70386 8.29837 9.55026C8.14477 9.3972 8.06797 9.20733 8.06797 8.98066C8.06797 8.754 8.14477 8.56386 8.29837 8.41026C8.45144 8.2572 8.6413 8.18066 8.86797 8.18066C9.09464 8.18066 9.28477 8.2572 9.43837 8.41026C9.59144 8.56386 9.66797 8.754 9.66797 8.98066C9.66797 9.20733 9.59144 9.3972 9.43837 9.55026C9.28477 9.70386 9.09464 9.78066 8.86797 9.78066ZM5.66797 9.78066C5.4413 9.78066 5.25117 9.70386 5.09757 9.55026C4.9445 9.3972 4.86797 9.20733 4.86797 8.98066C4.86797 8.754 4.9445 8.56386 5.09757 8.41026C5.25117 8.2572 5.4413 8.18066 5.66797 8.18066C5.89464 8.18066 6.08477 8.2572 6.23837 8.41026C6.39144 8.56386 6.46797 8.754 6.46797 8.98066C6.46797 9.20733 6.39144 9.3972 6.23837 9.55026C6.08477 9.70386 5.89464 9.78066 5.66797 9.78066ZM12.068 9.78066C11.8413 9.78066 11.6514 9.70386 11.4984 9.55026C11.3448 9.3972 11.268 9.20733 11.268 8.98066C11.268 8.754 11.3448 8.56386 11.4984 8.41026C11.6514 8.2572 11.8413 8.18066 12.068 8.18066C12.2946 8.18066 12.4845 8.2572 12.6376 8.41026C12.7912 8.56386 12.868 8.754 12.868 8.98066C12.868 9.20733 12.7912 9.3972 12.6376 9.55026C12.4845 9.70386 12.2946 9.78066 12.068 9.78066ZM8.86797 12.9807C8.6413 12.9807 8.45144 12.9039 8.29837 12.7503C8.14477 12.5972 8.06797 12.4073 8.06797 12.1807C8.06797 11.954 8.14477 11.7641 8.29837 11.6111C8.45144 11.4575 8.6413 11.3807 8.86797 11.3807C9.09464 11.3807 9.28477 11.4575 9.43837 11.6111C9.59144 11.7641 9.66797 11.954 9.66797 12.1807C9.66797 12.4073 9.59144 12.5972 9.43837 12.7503C9.28477 12.9039 9.09464 12.9807 8.86797 12.9807ZM5.66797 12.9807C5.4413 12.9807 5.25117 12.9039 5.09757 12.7503C4.9445 12.5972 4.86797 12.4073 4.86797 12.1807C4.86797 11.954 4.9445 11.7641 5.09757 11.6111C5.25117 11.4575 5.4413 11.3807 5.66797 11.3807C5.89464 11.3807 6.08477 11.4575 6.23837 11.6111C6.39144 11.7641 6.46797 11.954 6.46797 12.1807C6.46797 12.4073 6.39144 12.5972 6.23837 12.7503C6.08477 12.9039 5.89464 12.9807 5.66797 12.9807ZM12.068 12.9807C11.8413 12.9807 11.6514 12.9039 11.4984 12.7503C11.3448 12.5972 11.268 12.4073 11.268 12.1807C11.268 11.954 11.3448 11.7641 11.4984 11.6111C11.6514 11.4575 11.8413 11.3807 12.068 11.3807C12.2946 11.3807 12.4845 11.4575 12.6376 11.6111C12.7912 11.7641 12.868 11.954 12.868 12.1807C12.868 12.4073 12.7912 12.5972 12.6376 12.7503C12.4845 12.9039 12.2946 12.9807 12.068 12.9807ZM3.26797 16.1807C2.82797 16.1807 2.45117 16.0241 2.13757 15.7111C1.8245 15.3975 1.66797 15.0207 1.66797 14.5807V3.38066C1.66797 2.94066 1.8245 2.56413 2.13757 2.25106C2.45117 1.93746 2.82797 1.78066 3.26797 1.78066H4.06797V0.180664H5.66797V1.78066H12.068V0.180664H13.668V1.78066H14.468C14.908 1.78066 15.2848 1.93746 15.5984 2.25106C15.9114 2.56413 16.068 2.94066 16.068 3.38066V14.5807C16.068 15.0207 15.9114 15.3975 15.5984 15.7111C15.2848 16.0241 14.908 16.1807 14.468 16.1807H3.26797ZM3.26797 14.5807H14.468V6.58066H3.26797V14.5807Z" fill="#AAAAAA"/>
</g>
<defs>
<clipPath id="clip0_600_281">
<rect width="16" height="16" fill="white" transform="translate(0.667969 0.180664)"/>
</clipPath>
</defs>
</svg>
