<svg width="17" height="17" viewBox="0 0 17 17" fill="none" xmlns="http://www.w3.org/2000/svg">
<g id="Icon / Field / Calendar" clip-path="url(#clip0_588_236)">
<path id="Vector" d="M8.81747 10.1384C8.5908 10.1372 8.40134 10.0594 8.24907 9.90501C8.09627 9.75115 8.02046 9.56088 8.02165 9.33422C8.02283 9.10755 8.10062 8.91782 8.25502 8.76503C8.40888 8.61276 8.59914 8.53722 8.82581 8.5384C9.05247 8.53958 9.2422 8.6171 9.395 8.77097C9.54726 8.92536 9.62281 9.11589 9.62162 9.34256C9.62044 9.56922 9.54292 9.75869 9.38906 9.91095C9.23466 10.0637 9.04413 10.1396 8.81747 10.1384ZM5.61751 10.1217C5.39084 10.1205 5.20111 10.0427 5.04832 9.88833C4.89605 9.73446 4.82051 9.5442 4.82169 9.31754C4.82287 9.09087 4.90039 8.90114 5.05426 8.74834C5.20866 8.59608 5.39918 8.52054 5.62585 8.52172C5.85251 8.5229 6.04224 8.60042 6.19504 8.75429C6.34731 8.90868 6.42285 9.09921 6.42167 9.32588C6.42049 9.55254 6.34296 9.74201 6.1891 9.89427C6.0347 10.0471 5.84417 10.1229 5.61751 10.1217ZM12.0174 10.1551C11.7908 10.1539 11.6013 10.0761 11.449 9.92169C11.2962 9.76783 11.2204 9.57756 11.2216 9.3509C11.2228 9.12423 11.3006 8.9345 11.455 8.78171C11.6088 8.62944 11.7991 8.5539 12.0258 8.55508C12.2524 8.55626 12.4419 8.63378 12.5942 8.78764C12.747 8.94204 12.8228 9.13257 12.8216 9.35924C12.8204 9.5859 12.7426 9.77536 12.5882 9.92763C12.4343 10.0804 12.2441 10.1562 12.0174 10.1551ZM8.80079 13.3383C8.57412 13.3372 8.38466 13.2594 8.23239 13.105C8.07959 12.9511 8.00378 12.7608 8.00497 12.5342C8.00615 12.3075 8.08394 12.118 8.23833 11.9658C8.3922 11.813 8.58246 11.7372 8.80913 11.7384C9.03579 11.7395 9.22552 11.8173 9.37832 11.9717C9.53058 12.1256 9.60613 12.3158 9.60494 12.5425C9.60376 12.7692 9.52624 12.9586 9.37238 13.1109C9.21798 13.2637 9.02745 13.3395 8.80079 13.3383ZM5.60083 13.3217C5.37416 13.3205 5.18443 13.2427 5.03164 13.0883C4.87937 12.9344 4.80383 12.7442 4.80501 12.5175C4.80619 12.2908 4.88371 12.1014 5.03758 11.9491C5.19197 11.7963 5.3825 11.7205 5.60917 11.7217C5.83583 11.7229 6.02556 11.8006 6.17836 11.955C6.33063 12.1089 6.40617 12.2992 6.40499 12.5258C6.40381 12.7525 6.32628 12.942 6.17242 13.0942C6.01802 13.247 5.82749 13.3228 5.60083 13.3217ZM12.0007 13.355C11.7741 13.3538 11.5846 13.276 11.4324 13.1216C11.2795 12.9678 11.2037 12.7775 11.2049 12.5509C11.2061 12.3242 11.2839 12.1347 11.4383 11.9825C11.5922 11.8297 11.7824 11.7539 12.0091 11.755C12.2357 11.7562 12.4252 11.834 12.5775 11.9884C12.7303 12.1423 12.8061 12.3325 12.8049 12.5592C12.8037 12.7859 12.7259 12.9753 12.5715 13.1276C12.4177 13.2804 12.2274 13.3562 12.0007 13.355ZM3.18418 16.5091C2.74419 16.5068 2.36821 16.3483 2.05624 16.0336C1.74482 15.7184 1.59025 15.3408 1.59254 14.9008L1.65092 3.70093C1.65322 3.26094 1.81171 2.88523 2.1264 2.5738C2.44163 2.26184 2.81925 2.107 3.25924 2.10929L4.05923 2.11346L4.06757 0.513487L5.66755 0.521827L5.65921 2.1218L12.0591 2.15516L12.0675 0.555186L13.6674 0.563526L13.6591 2.1635L14.4591 2.16767C14.8991 2.16997 15.2751 2.32873 15.587 2.64396C15.8985 2.95865 16.053 3.336 16.0507 3.77599L15.9923 14.9758C15.9901 15.4158 15.8316 15.7918 15.5169 16.1038C15.2016 16.4152 14.824 16.5698 14.384 16.5675L3.18418 16.5091ZM3.19252 14.9091L14.3924 14.9675L14.4341 6.96761L3.23422 6.90923L3.19252 14.9091Z" fill="black"/>
</g>
<defs>
<clipPath id="clip0_588_236">
<rect width="16" height="16" fill="white" transform="translate(0.667603 0.496094) rotate(0.298655)"/>
</clipPath>
</defs>
</svg>
