<svg width="29" height="27" viewBox="0 0 29 27" fill="none" xmlns="http://www.w3.org/2000/svg">
<path id="Vector" fill-rule="evenodd" clip-rule="evenodd" d="M3.75222 0.543488C3.34144 0.185792 2.79814 -0.0089407 2.23677 0.000315487C1.6754 0.00957167 1.13978 0.222094 0.742772 0.593109C0.34576 0.964124 0.118346 1.46466 0.108441 1.98928C0.0985364 2.51389 0.306914 3.02162 0.689674 3.40549L11.4375 13.4495L0.689674 23.4935C0.476779 23.6789 0.306021 23.9024 0.187588 24.1508C0.0691542 24.3992 0.0054707 24.6674 0.00033723 24.9393C-0.00479624 25.2112 0.048725 25.4813 0.157708 25.7334C0.266691 25.9855 0.428904 26.2146 0.634668 26.4069C0.840433 26.5992 1.08553 26.7508 1.35535 26.8526C1.62517 26.9545 1.91417 27.0045 2.20512 26.9997C2.49607 26.9949 2.783 26.9354 3.04881 26.8247C3.31461 26.714 3.55384 26.5544 3.75222 26.3555L14.5 16.3115L25.2478 26.3555C25.4462 26.5544 25.6854 26.714 25.9512 26.8247C26.217 26.9354 26.5039 26.9949 26.7949 26.9997C27.0858 27.0045 27.3748 26.9545 27.6446 26.8526C27.9145 26.7508 28.1596 26.5992 28.3653 26.4069C28.5711 26.2146 28.7333 25.9855 28.8423 25.7334C28.9513 25.4813 29.0048 25.2112 28.9997 24.9393C28.9945 24.6674 28.9308 24.3992 28.8124 24.1508C28.694 23.9024 28.5232 23.6789 28.3103 23.4935L17.5625 13.4495L28.3103 3.40549C28.6931 3.02162 28.9015 2.51389 28.8916 1.98928C28.8817 1.46466 28.6542 0.964124 28.2572 0.593109C27.8602 0.222094 27.3246 0.00957167 26.7632 0.000315487C26.2019 -0.0089407 25.6586 0.185792 25.2478 0.543488L14.5 10.5875L3.75222 0.543488Z" fill="white"/>
</svg>
