<svg width="12" height="12" viewBox="0 0 12 12" fill="none" xmlns="http://www.w3.org/2000/svg">
<path id="Vector" d="M2.37462 10.6522L1.4446 3.89163L10.2445 3.9375L9.24403 10.688C9.2052 10.9499 9.07319 11.1891 8.87225 11.3615C8.6713 11.5339 8.4149 11.6281 8.15012 11.6267L3.45869 11.6022C3.19391 11.6009 2.9385 11.504 2.73937 11.3295C2.54023 11.155 2.41072 10.9145 2.37462 10.6522ZM10.8059 1.74039L8.05598 1.72606L8.05885 1.17607C8.05961 1.0302 8.00239 0.890004 7.89978 0.786323C7.79718 0.682642 7.65759 0.623967 7.51172 0.623207L4.21176 0.606006C4.0659 0.605245 3.9257 0.662461 3.82202 0.765067C3.71834 0.867673 3.65967 1.00726 3.6589 1.15313L3.65604 1.70312L0.906075 1.68879C0.760208 1.68803 0.620013 1.74525 0.516332 1.84785C0.412651 1.95046 0.353976 2.09005 0.353216 2.23592C0.352455 2.38178 0.409672 2.52198 0.512278 2.62566C0.614884 2.72934 0.754474 2.78801 0.900341 2.78877L10.8002 2.84038C10.9461 2.84114 11.0863 2.78392 11.19 2.68132C11.2936 2.57871 11.3523 2.43912 11.3531 2.29325C11.3538 2.14739 11.2966 2.00719 11.194 1.90351C11.0914 1.79983 10.9518 1.74115 10.8059 1.74039Z" fill="#F11212"/>
</svg>
