<svg width="14" height="15" viewBox="0 0 14 15" fill="none" xmlns="http://www.w3.org/2000/svg">
<path id="Vector" d="M13.6468 0.489465C13.7583 0.60085 13.8467 0.733125 13.9071 0.878724C13.9675 1.02432 13.9985 1.18039 13.9985 1.33801C13.9985 1.49562 13.9675 1.65169 13.9071 1.79729C13.8467 1.94289 13.7583 2.07516 13.6468 2.18655L7.70775 8.12557L5.16212 8.97411L6.01066 6.42848L11.9497 0.489465C12.0611 0.377949 12.1933 0.289482 12.3389 0.229123C12.4845 0.168763 12.6406 0.137695 12.7982 0.137695C12.9558 0.137695 13.1119 0.168763 13.2575 0.229123C13.4031 0.289482 13.5354 0.377949 13.6468 0.489465ZM0.776301 14.1377H12.4428C12.6491 14.1377 12.8469 14.0558 12.9927 13.9099C13.1386 13.764 13.2205 13.5662 13.2205 13.3599V7.13781C13.2205 6.93153 13.1386 6.7337 12.9927 6.58784C12.8469 6.44198 12.6491 6.36004 12.4428 6.36004C12.2365 6.36004 12.0387 6.44198 11.8928 6.58784C11.747 6.7337 11.665 6.93153 11.665 7.13781V12.5822H1.55407V2.47121H6.99843C7.2047 2.47121 7.40253 2.38927 7.54839 2.24341C7.69425 2.09755 7.77619 1.89972 7.77619 1.69345C7.77619 1.48717 7.69425 1.28934 7.54839 1.14348C7.40253 0.997624 7.2047 0.915681 6.99843 0.915681H0.776301C0.570024 0.915681 0.372197 0.997624 0.226337 1.14348C0.080478 1.28934 -0.00146484 1.48717 -0.00146484 1.69345V13.3599C-0.00146484 13.5662 0.080478 13.764 0.226337 13.9099C0.372197 14.0558 0.570024 14.1377 0.776301 14.1377Z" fill="#0909B1"/>
</svg>
