<svg width="30" height="24" viewBox="0 0 30 24" fill="none" xmlns="http://www.w3.org/2000/svg">
<g style="mix-blend-mode:difference">
<path d="M21.7432 15.3882H20.3758L19.8911 15.0207C20.9729 14.0325 21.7635 12.8685 22.2064 11.612C22.6492 10.3555 22.7334 9.03751 22.4529 7.75241C21.6394 3.96852 17.6235 0.946855 12.7768 0.484078C11.0728 0.314573 9.34214 0.453822 7.71716 0.891171C6.09218 1.32852 4.61597 2.05238 3.4015 3.00735C2.18702 3.96232 1.26647 5.1231 0.710273 6.40086C0.15408 7.67862 -0.0230095 9.0395 0.192557 10.3794C0.781089 14.1905 4.62386 17.3482 9.43598 17.988C11.0703 18.2085 12.7464 18.1423 14.3444 17.7941C15.9423 17.4458 17.4227 16.8242 18.6794 15.9735L19.1468 16.3546V17.4299L26.5034 23.2146C27.2131 23.7727 28.3729 23.7727 29.0826 23.2146C29.7923 22.6566 29.7923 21.7446 29.0826 21.1866L21.7432 15.3882ZM11.3574 15.3882C7.04723 15.3882 3.56796 12.6524 3.56796 9.26325C3.56796 5.87408 7.04723 3.13824 11.3574 3.13824C15.6675 3.13824 19.1468 5.87408 19.1468 9.26325C19.1468 12.6524 15.6675 15.3882 11.3574 15.3882Z" fill="#808080"/>
</g>
</svg>
